<svg xmlns="http://www.w3.org/2000/svg" viewBox="0 0 265 370" width="265" height="370">
  <defs>
    <linearGradient id="bg" x1="0" y1="0" x2="1" y2="1">
      <stop offset="0%" stop-color="#1a1025"/>
      <stop offset="100%" stop-color="#0d0a18"/>
    </linearGradient>
    <linearGradient id="border" x1="0" y1="0" x2="1" y2="1">
      <stop offset="0%" stop-color="#7c3aed"/>
      <stop offset="100%" stop-color="#06b6d4"/>
    </linearGradient>
  </defs>
  <rect width="265" height="370" rx="12" ry="12" fill="url(#bg)"/>
  <rect x="4" y="4" width="257" height="362" rx="10" ry="10" fill="none" stroke="url(#border)" stroke-width="2" opacity="0.6"/>
  <rect x="12" y="12" width="241" height="346" rx="8" ry="8" fill="none" stroke="rgba(139,92,246,0.2)" stroke-width="1"/>
  <!-- Scale icon centered -->
  <g transform="translate(108, 145) scale(2.0)" fill="none" stroke="rgba(139,92,246,0.5)" stroke-width="1.5" stroke-linecap="round" stroke-linejoin="round">
    <path d="M12 3v18"/>
    <path d="m19 8 3 8a5 5 0 0 1-6 0zV7"/>
    <path d="M3 7h1a17 17 0 0 0 8-2 17 17 0 0 0 8 2h1"/>
    <path d="m5 8 3 8a5 5 0 0 1-6 0zV7"/>
    <path d="M7 21h10"/>
  </g>
</svg>
