<svg xmlns="http://www.w3.org/2000/svg" viewBox="0 0 32 32" width="32" height="32">
  <defs>
    <linearGradient id="bg" x1="0" y1="0" x2="1" y2="1">
      <stop offset="0%" stop-color="#7c3aed"/>
      <stop offset="100%" stop-color="#06b6d4"/>
    </linearGradient>
  </defs>
  <rect width="32" height="32" rx="6" ry="6" fill="url(#bg)"/>
  <!-- Scale icon scaled from 24×24 to 20×20, centered at (6,6) -->
  <g transform="translate(6, 6) scale(0.8333)"
     fill="none" stroke="white" stroke-width="1.75"
     stroke-linecap="round" stroke-linejoin="round">
    <path d="M12 3v18"/>
    <path d="m19 8 3 8a5 5 0 0 1-6 0zV7"/>
    <path d="M3 7h1a17 17 0 0 0 8-2 17 17 0 0 0 8 2h1"/>
    <path d="m5 8 3 8a5 5 0 0 1-6 0zV7"/>
    <path d="M7 21h10"/>
  </g>
</svg>
